<svg width="25" height="24" viewBox="0 0 25 24" fill="none" xmlns="http://www.w3.org/2000/svg">
<path d="M8.89996 5.75C8.48996 5.75 8.14996 5.41 8.14996 5V2C8.14996 1.59 8.48996 1.25 8.89996 1.25C9.30996 1.25 9.64996 1.59 9.64996 2V5C9.64996 5.41 9.30996 5.75 8.89996 5.75Z" fill="white"/>
<path d="M16.9 5.75C16.49 5.75 16.15 5.41 16.15 5V2C16.15 1.59 16.49 1.25 16.9 1.25C17.31 1.25 17.65 1.59 17.65 2V5C17.65 5.41 17.31 5.75 16.9 5.75Z" fill="white"/>
<path d="M21.4 9.83984H4.39996C3.98996 9.83984 3.64996 9.49984 3.64996 9.08984C3.64996 8.67984 3.98996 8.33984 4.39996 8.33984H21.4C21.81 8.33984 22.15 8.67984 22.15 9.08984C22.15 9.49984 21.81 9.83984 21.4 9.83984Z" fill="white"/>
<path d="M16.9 22.75H8.89996C5.24996 22.75 3.14996 20.65 3.14996 17V8.5C3.14996 4.85 5.24996 2.75 8.89996 2.75H16.9C20.55 2.75 22.65 4.85 22.65 8.5V17C22.65 20.65 20.55 22.75 16.9 22.75ZM8.89996 4.25C6.03996 4.25 4.64996 5.64 4.64996 8.5V17C4.64996 19.86 6.03996 21.25 8.89996 21.25H16.9C19.76 21.25 21.15 19.86 21.15 17V8.5C21.15 5.64 19.76 4.25 16.9 4.25H8.89996Z" fill="white"/>
<path d="M9.39996 14.5C9.26996 14.5 9.13996 14.47 9.01996 14.42C8.89996 14.37 8.78997 14.3 8.68997 14.21C8.59997 14.11 8.52995 14 8.47995 13.88C8.42995 13.76 8.39996 13.63 8.39996 13.5C8.39996 13.24 8.50997 12.98 8.68997 12.79C8.78997 12.7 8.89996 12.63 9.01996 12.58C9.19996 12.5 9.39998 12.48 9.59998 12.52C9.65998 12.53 9.71997 12.55 9.77997 12.58C9.83997 12.6 9.89996 12.63 9.95996 12.67C10.01 12.71 10.06 12.75 10.11 12.79C10.15 12.84 10.1999 12.89 10.2299 12.94C10.2699 13 10.3 13.06 10.32 13.12C10.35 13.18 10.37 13.24 10.38 13.3C10.39 13.37 10.4 13.43 10.4 13.5C10.4 13.76 10.29 14.02 10.11 14.21C9.91995 14.39 9.65996 14.5 9.39996 14.5Z" fill="white"/>
<path d="M12.9 14.4999C12.64 14.4999 12.38 14.3899 12.19 14.2099C12.15 14.1599 12.11 14.1099 12.07 14.0599C12.03 13.9999 11.9999 13.9399 11.9799 13.8799C11.9499 13.8199 11.93 13.7599 11.92 13.6999C11.91 13.6299 11.9 13.5699 11.9 13.4999C11.9 13.3699 11.9299 13.2399 11.9799 13.1199C12.0299 12.9999 12.1 12.8899 12.19 12.7899C12.47 12.5099 12.92 12.4199 13.28 12.5799C13.41 12.6299 13.51 12.6999 13.61 12.7899C13.79 12.9799 13.9 13.2399 13.9 13.4999C13.9 13.5699 13.89 13.6299 13.88 13.6999C13.87 13.7599 13.85 13.8199 13.82 13.8799C13.8 13.9399 13.7699 13.9999 13.7299 14.0599C13.6899 14.1099 13.65 14.1599 13.61 14.2099C13.51 14.2999 13.41 14.3699 13.28 14.4199C13.16 14.4699 13.03 14.4999 12.9 14.4999Z" fill="white"/>
<path d="M9.39996 17.9999C9.26996 17.9999 9.13996 17.9699 9.01996 17.9199C8.89996 17.8699 8.78997 17.7999 8.68997 17.7099C8.59997 17.6099 8.52995 17.5099 8.47995 17.3799C8.42995 17.2599 8.39996 17.1299 8.39996 16.9999C8.39996 16.7399 8.50997 16.4799 8.68997 16.2899C8.78997 16.1999 8.89996 16.1299 9.01996 16.0799C9.38996 15.9199 9.82995 16.0099 10.11 16.2899C10.15 16.3399 10.1999 16.3899 10.2299 16.4399C10.2699 16.4999 10.3 16.5599 10.32 16.6199C10.35 16.6799 10.37 16.7399 10.38 16.8099C10.39 16.8699 10.4 16.9399 10.4 16.9999C10.4 17.2599 10.29 17.5199 10.11 17.7099C9.91995 17.8899 9.65996 17.9999 9.39996 17.9999Z" fill="white"/>
</svg>
