<svg width="17" height="16" viewBox="0 0 17 16" fill="none" xmlns="http://www.w3.org/2000/svg">
<path d="M11.6667 2.3735V1.3335C11.6667 1.06016 11.44 0.833496 11.1667 0.833496C10.8933 0.833496 10.6667 1.06016 10.6667 1.3335V2.3335H6.33332V1.3335C6.33332 1.06016 6.10666 0.833496 5.83332 0.833496C5.55999 0.833496 5.33332 1.06016 5.33332 1.3335V2.3735C3.53332 2.54016 2.65999 3.6135 2.52666 5.20683C2.51332 5.40016 2.67332 5.56016 2.85999 5.56016H14.14C14.3333 5.56016 14.4933 5.3935 14.4733 5.20683C14.34 3.6135 13.4667 2.54016 11.6667 2.3735Z" fill="#D0D5DD"/>
<path d="M13.8333 6.56006H3.16667C2.8 6.56006 2.5 6.86006 2.5 7.22673V11.3334C2.5 13.3334 3.5 14.6667 5.83333 14.6667H11.1667C13.5 14.6667 14.5 13.3334 14.5 11.3334V7.22673C14.5 6.86006 14.2 6.56006 13.8333 6.56006ZM6.64 12.1401C6.57333 12.2001 6.5 12.2467 6.42 12.2801C6.34 12.3134 6.25333 12.3334 6.16667 12.3334C6.08 12.3334 5.99333 12.3134 5.91333 12.2801C5.83333 12.2467 5.76 12.2001 5.69333 12.1401C5.57333 12.0134 5.5 11.8401 5.5 11.6667C5.5 11.4934 5.57333 11.3201 5.69333 11.1934C5.76 11.1334 5.83333 11.0867 5.91333 11.0534C6.07333 10.9867 6.26 10.9867 6.42 11.0534C6.5 11.0867 6.57333 11.1334 6.64 11.1934C6.76 11.3201 6.83333 11.4934 6.83333 11.6667C6.83333 11.8401 6.76 12.0134 6.64 12.1401ZM6.78 9.58673C6.74667 9.66673 6.7 9.74006 6.64 9.80673C6.57333 9.86673 6.5 9.91339 6.42 9.94673C6.34 9.98006 6.25333 10.0001 6.16667 10.0001C6.08 10.0001 5.99333 9.98006 5.91333 9.94673C5.83333 9.91339 5.76 9.86673 5.69333 9.80673C5.63333 9.74006 5.58667 9.66673 5.55333 9.58673C5.52 9.50673 5.5 9.42006 5.5 9.33339C5.5 9.24673 5.52 9.16006 5.55333 9.08006C5.58667 9.00006 5.63333 8.92673 5.69333 8.86006C5.76 8.80006 5.83333 8.75339 5.91333 8.72006C6.07333 8.65339 6.26 8.65339 6.42 8.72006C6.5 8.75339 6.57333 8.80006 6.64 8.86006C6.7 8.92673 6.74667 9.00006 6.78 9.08006C6.81333 9.16006 6.83333 9.24673 6.83333 9.33339C6.83333 9.42006 6.81333 9.50673 6.78 9.58673ZM8.97333 9.80673C8.90667 9.86673 8.83333 9.91339 8.75333 9.94673C8.67333 9.98006 8.58667 10.0001 8.5 10.0001C8.41333 10.0001 8.32667 9.98006 8.24667 9.94673C8.16667 9.91339 8.09333 9.86673 8.02667 9.80673C7.90667 9.68006 7.83333 9.50673 7.83333 9.33339C7.83333 9.16006 7.90667 8.98673 8.02667 8.86006C8.09333 8.80006 8.16667 8.75339 8.24667 8.72006C8.40667 8.64673 8.59333 8.64673 8.75333 8.72006C8.83333 8.75339 8.90667 8.80006 8.97333 8.86006C9.09333 8.98673 9.16667 9.16006 9.16667 9.33339C9.16667 9.50673 9.09333 9.68006 8.97333 9.80673Z" fill="#D0D5DD"/>
</svg>
