<svg width="25" height="24" viewBox="0 0 25 24" fill="none" xmlns="http://www.w3.org/2000/svg">
<path d="M17.65 3.56V2C17.65 1.59 17.31 1.25 16.9 1.25C16.49 1.25 16.15 1.59 16.15 2V3.5H9.65001V2C9.65001 1.59 9.31001 1.25 8.90001 1.25C8.49001 1.25 8.15001 1.59 8.15001 2V3.56C5.45001 3.81 4.14001 5.42 3.94001 7.81C3.92001 8.1 4.16001 8.34 4.44001 8.34H21.36C21.65 8.34 21.89 8.09 21.86 7.81C21.66 5.42 20.35 3.81 17.65 3.56Z" fill="white"/>
<path d="M20.9 9.83984H4.90001C4.35001 9.83984 3.90001 10.2898 3.90001 10.8398V16.9998C3.90001 19.9998 5.40001 21.9998 8.90001 21.9998H16.9C20.4 21.9998 21.9 19.9998 21.9 16.9998V10.8398C21.9 10.2898 21.45 9.83984 20.9 9.83984ZM10.11 18.2098C10.01 18.2998 9.90001 18.3698 9.78001 18.4198C9.66001 18.4698 9.53001 18.4998 9.40001 18.4998C9.27001 18.4998 9.14001 18.4698 9.02001 18.4198C8.90001 18.3698 8.79001 18.2998 8.69001 18.2098C8.51001 18.0198 8.40001 17.7598 8.40001 17.4998C8.40001 17.2398 8.51001 16.9798 8.69001 16.7898C8.79001 16.6998 8.90001 16.6298 9.02001 16.5798C9.26001 16.4798 9.54001 16.4798 9.78001 16.5798C9.90001 16.6298 10.01 16.6998 10.11 16.7898C10.29 16.9798 10.4 17.2398 10.4 17.4998C10.4 17.7598 10.29 18.0198 10.11 18.2098ZM10.32 14.3798C10.27 14.4998 10.2 14.6098 10.11 14.7098C10.01 14.7998 9.90001 14.8698 9.78001 14.9198C9.66001 14.9698 9.53001 14.9998 9.40001 14.9998C9.27001 14.9998 9.14001 14.9698 9.02001 14.9198C8.90001 14.8698 8.79001 14.7998 8.69001 14.7098C8.60001 14.6098 8.53001 14.4998 8.48001 14.3798C8.43001 14.2598 8.40001 14.1298 8.40001 13.9998C8.40001 13.8698 8.43001 13.7398 8.48001 13.6198C8.53001 13.4998 8.60001 13.3898 8.69001 13.2898C8.79001 13.1998 8.90001 13.1298 9.02001 13.0798C9.26001 12.9798 9.54001 12.9798 9.78001 13.0798C9.90001 13.1298 10.01 13.1998 10.11 13.2898C10.2 13.3898 10.27 13.4998 10.32 13.6198C10.37 13.7398 10.4 13.8698 10.4 13.9998C10.4 14.1298 10.37 14.2598 10.32 14.3798ZM13.61 14.7098C13.51 14.7998 13.4 14.8698 13.28 14.9198C13.16 14.9698 13.03 14.9998 12.9 14.9998C12.77 14.9998 12.64 14.9698 12.52 14.9198C12.4 14.8698 12.29 14.7998 12.19 14.7098C12.01 14.5198 11.9 14.2598 11.9 13.9998C11.9 13.7398 12.01 13.4798 12.19 13.2898C12.29 13.1998 12.4 13.1298 12.52 13.0798C12.76 12.9698 13.04 12.9698 13.28 13.0798C13.4 13.1298 13.51 13.1998 13.61 13.2898C13.79 13.4798 13.9 13.7398 13.9 13.9998C13.9 14.2598 13.79 14.5198 13.61 14.7098Z" fill="white"/>
</svg>
