<svg width="20" height="20" viewBox="0 0 20 20" fill="none" xmlns="http://www.w3.org/2000/svg">
<path d="M15 5.00033C14.4917 5.00033 14.025 4.70866 13.7917 4.25866L13.1917 3.05033C12.8083 2.29199 11.8083 1.66699 10.9583 1.66699H9.05C8.19166 1.66699 7.19166 2.29199 6.80833 3.05033L6.20833 4.25866C5.975 4.70866 5.50833 5.00033 5 5.00033C3.19166 5.00033 1.75833 6.52533 1.875 8.32533L2.30833 15.2087C2.40833 16.9253 3.33333 18.3337 5.63333 18.3337H14.3667C16.6667 18.3337 17.5833 16.9253 17.6917 15.2087L18.125 8.32533C18.2417 6.52533 16.8083 5.00033 15 5.00033ZM8.75 6.04199H11.25C11.5917 6.04199 11.875 6.32533 11.875 6.66699C11.875 7.00866 11.5917 7.29199 11.25 7.29199H8.75C8.40833 7.29199 8.125 7.00866 8.125 6.66699C8.125 6.32533 8.40833 6.04199 8.75 6.04199ZM10 15.1003C8.45 15.1003 7.18333 13.842 7.18333 12.2837C7.18333 10.7253 8.44166 9.46699 10 9.46699C11.5583 9.46699 12.8167 10.7253 12.8167 12.2837C12.8167 13.842 11.55 15.1003 10 15.1003Z" fill="#98A2B3"/>
</svg>
