<svg width="20" height="20" viewBox="0 0 20 20" fill="none" xmlns="http://www.w3.org/2000/svg">
<path d="M15.8333 6.66667C17.214 6.66667 18.3333 5.54738 18.3333 4.16667C18.3333 2.78596 17.214 1.66667 15.8333 1.66667C14.4525 1.66667 13.3333 2.78596 13.3333 4.16667C13.3333 5.54738 14.4525 6.66667 15.8333 6.66667Z" fill="#7A5AF8"/>
<path d="M16.5001 7.85C16.4834 7.85 16.4667 7.85833 16.4501 7.85833C16.3667 7.875 16.2834 7.88333 16.1917 7.9C15.8417 7.93333 15.4667 7.91667 15.0834 7.84167C14.9834 7.81667 14.9001 7.8 14.8084 7.76667C14.5334 7.7 14.2751 7.59167 14.0334 7.45C13.9334 7.4 13.8334 7.33333 13.7417 7.275C13.3417 7 13.0001 6.65833 12.7251 6.25833C12.6667 6.16667 12.6001 6.06667 12.5501 5.96667C12.4084 5.725 12.3001 5.46667 12.2334 5.19167C12.2001 5.1 12.1834 5.01667 12.1584 4.91667C12.0834 4.53333 12.0667 4.15833 12.1001 3.80833C12.1167 3.71667 12.1251 3.63333 12.1417 3.55C12.1417 3.53333 12.1501 3.51667 12.1501 3.5C12.2501 2.98333 11.8667 2.5 11.3334 2.5H6.26675C6.15008 2.5 6.03341 2.50833 5.92508 2.51667C5.82508 2.525 5.73341 2.53333 5.63341 2.55C5.53341 2.55833 5.43341 2.575 5.34175 2.59167C3.33341 2.88333 2.05008 4.15833 1.75841 6.175C1.74175 6.26667 1.72508 6.36667 1.71675 6.46667C1.70008 6.56667 1.69175 6.65833 1.68341 6.75833C1.67508 6.86667 1.66675 6.98333 1.66675 7.1V13.7333C1.66675 13.85 1.67508 13.9667 1.68341 14.075C1.69175 14.175 1.70008 14.2667 1.71675 14.3667C1.72508 14.4667 1.74175 14.5667 1.75841 14.6583C2.05008 16.675 3.33341 17.95 5.34175 18.2417C5.43341 18.2583 5.53341 18.275 5.63341 18.2833C5.73341 18.3 5.82508 18.3083 5.92508 18.3167C6.03341 18.325 6.15008 18.3333 6.26675 18.3333H12.9001C13.0167 18.3333 13.1334 18.325 13.2417 18.3167C13.3417 18.3083 13.4334 18.3 13.5334 18.2833C13.6334 18.275 13.7334 18.2583 13.8251 18.2417C15.8334 17.95 17.1167 16.675 17.4084 14.6583C17.4251 14.5667 17.4417 14.4667 17.4501 14.3667C17.4667 14.2667 17.4751 14.175 17.4834 14.075C17.4917 13.9667 17.5001 13.85 17.5001 13.7333V8.66667C17.5001 8.13333 17.0167 7.75 16.5001 7.85ZM5.62508 10.4167H9.79175C10.1334 10.4167 10.4167 10.7 10.4167 11.0417C10.4167 11.3833 10.1334 11.6667 9.79175 11.6667H5.62508C5.28341 11.6667 5.00008 11.3833 5.00008 11.0417C5.00008 10.7 5.28341 10.4167 5.62508 10.4167ZM13.1251 15H5.62508C5.28341 15 5.00008 14.7167 5.00008 14.375C5.00008 14.0333 5.28341 13.75 5.62508 13.75H13.1251C13.4667 13.75 13.7501 14.0333 13.7501 14.375C13.7501 14.7167 13.4667 15 13.1251 15Z" fill="#7A5AF8"/>
</svg>
