<svg width="16" height="16" viewBox="0 0 16 16" fill="none" xmlns="http://www.w3.org/2000/svg">
<path d="M11.3333 1.3335H4.66668C2.82668 1.3335 1.33334 2.82016 1.33334 4.6535V8.64016V9.30683C1.33334 11.1402 2.82668 12.6268 4.66668 12.6268H5.66668C5.84668 12.6268 6.08668 12.7468 6.20001 12.8935L7.20001 14.2202C7.64001 14.8068 8.36001 14.8068 8.80001 14.2202L9.80001 12.8935C9.92668 12.7268 10.1267 12.6268 10.3333 12.6268H11.3333C13.1733 12.6268 14.6667 11.1402 14.6667 9.30683V4.6535C14.6667 2.82016 13.1733 1.3335 11.3333 1.3335ZM5.33334 8.00016C4.96001 8.00016 4.66668 7.70016 4.66668 7.3335C4.66668 6.96683 4.96668 6.66683 5.33334 6.66683C5.70001 6.66683 6.00001 6.96683 6.00001 7.3335C6.00001 7.70016 5.70668 8.00016 5.33334 8.00016ZM8.00001 8.00016C7.62668 8.00016 7.33334 7.70016 7.33334 7.3335C7.33334 6.96683 7.63334 6.66683 8.00001 6.66683C8.36668 6.66683 8.66668 6.96683 8.66668 7.3335C8.66668 7.70016 8.37334 8.00016 8.00001 8.00016ZM10.6667 8.00016C10.2933 8.00016 10 7.70016 10 7.3335C10 6.96683 10.3 6.66683 10.6667 6.66683C11.0333 6.66683 11.3333 6.96683 11.3333 7.3335C11.3333 7.70016 11.04 8.00016 10.6667 8.00016Z" fill="#D0D5DD"/>
</svg>
