<svg width="48" height="48" viewBox="0 0 48 48" fill="none" xmlns="http://www.w3.org/2000/svg">
<path d="M17.5 7V4C17.5 3.18 16.82 2.5 16 2.5C15.18 2.5 14.5 3.18 14.5 4V7.12C15 7.06 15.46 7 16 7H17.5Z" fill="#FEFEFE"/>
<path d="M33.5 7.12V4C33.5 3.18 32.82 2.5 32 2.5C31.18 2.5 30.5 3.18 30.5 4V7H32C32.54 7 33 7.06 33.5 7.12Z" fill="#FEFEFE"/>
<path d="M33.5 7.12V10C33.5 10.82 32.82 11.5 32 11.5C31.18 11.5 30.5 10.82 30.5 10V7H17.5V10C17.5 10.82 16.82 11.5 16 11.5C15.18 11.5 14.5 10.82 14.5 10V7.12C8.6 7.66 6 11.46 6 17V34C6 40 9 44 16 44H32C39 44 42 40 42 34V17C42 11.46 39.4 7.66 33.5 7.12ZM24 33.5H16C15.18 33.5 14.5 32.82 14.5 32C14.5 31.18 15.18 30.5 16 30.5H24C24.82 30.5 25.5 31.18 25.5 32C25.5 32.82 24.82 33.5 24 33.5ZM32 23.5H16C15.18 23.5 14.5 22.82 14.5 22C14.5 21.18 15.18 20.5 16 20.5H32C32.82 20.5 33.5 21.18 33.5 22C33.5 22.82 32.82 23.5 32 23.5Z" fill="#FEFEFE"/>
</svg>
