<svg width="20" height="20" viewBox="0 0 20 20" fill="none" xmlns="http://www.w3.org/2000/svg">
<path d="M10.0001 1.66666C5.40008 1.66666 1.66675 5.39999 1.66675 9.99999C1.66675 14.6 5.40008 18.3333 10.0001 18.3333C14.6001 18.3333 18.3334 14.6 18.3334 9.99999C18.3334 5.39999 14.6001 1.66666 10.0001 1.66666ZM10.0001 7.29166C9.65842 7.29166 9.37508 7.00832 9.37508 6.66666C9.37508 6.32499 9.65842 6.04166 10.0001 6.04166C12.1834 6.04166 13.9584 7.81666 13.9584 9.99999C13.9584 12.1833 12.1834 13.9583 10.0001 13.9583C9.65842 13.9583 9.37508 13.675 9.37508 13.3333C9.37508 12.9917 9.65842 12.7083 10.0001 12.7083C11.4917 12.7083 12.7084 11.4917 12.7084 9.99999C12.7084 8.50832 11.4917 7.29166 10.0001 7.29166ZM10.0001 16.4583C6.44175 16.4583 3.54175 13.5583 3.54175 9.99999C3.54175 9.65832 3.82508 9.37499 4.16675 9.37499C4.50841 9.37499 4.79175 9.65832 4.79175 9.99999C4.79175 12.875 7.12508 15.2083 10.0001 15.2083C12.8751 15.2083 15.2084 12.875 15.2084 9.99999C15.2084 7.12499 12.8751 4.79166 10.0001 4.79166C9.65842 4.79166 9.37508 4.50832 9.37508 4.16666C9.37508 3.82499 9.65842 3.54166 10.0001 3.54166C13.5584 3.54166 16.4584 6.44166 16.4584 9.99999C16.4584 13.5583 13.5584 16.4583 10.0001 16.4583Z" fill="#7A5AF8"/>
</svg>
