<svg width="14" height="14" viewBox="0 0 14 14" fill="none" xmlns="http://www.w3.org/2000/svg">
<path d="M7.00001 0.333496C3.32668 0.333496 0.333344 3.32683 0.333344 7.00016C0.333344 10.6735 3.32668 13.6668 7.00001 13.6668C10.6733 13.6668 13.6667 10.6735 13.6667 7.00016C13.6667 3.32683 10.6733 0.333496 7.00001 0.333496ZM10.1867 5.46683L6.40668 9.24683C6.31334 9.34016 6.18668 9.3935 6.05334 9.3935C5.92001 9.3935 5.79334 9.34016 5.70001 9.24683L3.81334 7.36016C3.62001 7.16683 3.62001 6.84683 3.81334 6.6535C4.00668 6.46016 4.32668 6.46016 4.52001 6.6535L6.05334 8.18683L9.48001 4.76016C9.67334 4.56683 9.99334 4.56683 10.1867 4.76016C10.38 4.9535 10.38 5.26683 10.1867 5.46683Z" fill="#19B36E"/>
</svg>
