<svg width="20" height="20" viewBox="0 0 20 20" fill="none" xmlns="http://www.w3.org/2000/svg">
<path d="M10 12.4001C9.24167 12.4001 8.625 11.7835 8.625 11.0251V8.96682C8.625 8.20848 9.24167 7.5918 10 7.5918C10.7583 7.5918 11.375 8.20848 11.375 8.96682V11.0251C11.375 11.7835 10.7583 12.4001 10 12.4001Z" stroke="#9B8AFB" stroke-width="1.5" stroke-linecap="round"/>
<path d="M14.15 11.2247C13.9833 13.3747 12.1833 15.0581 9.99998 15.0581C7.69998 15.0581 5.83331 13.1914 5.83331 10.8914V9.10807C5.83331 6.80807 7.69998 4.94141 9.99998 4.94141C12.1583 4.94141 13.9333 6.58306 14.1416 8.68306" stroke="#9B8AFB" stroke-width="1.5" stroke-linecap="round"/>
<path d="M12.5 1.66699H14.1667C16.6667 1.66699 18.3333 3.33366 18.3333 5.83366V7.50033" stroke="#7A5AF8" stroke-width="1.5" stroke-miterlimit="10" stroke-linecap="round" stroke-linejoin="round"/>
<path d="M1.66669 7.50033V5.83366C1.66669 3.33366 3.33335 1.66699 5.83335 1.66699H7.50002" stroke="#7A5AF8" stroke-width="1.5" stroke-miterlimit="10" stroke-linecap="round" stroke-linejoin="round"/>
<path d="M12.5 18.3333H14.1667C16.6667 18.3333 18.3333 16.6667 18.3333 14.1667V12.5" stroke="#7A5AF8" stroke-width="1.5" stroke-miterlimit="10" stroke-linecap="round" stroke-linejoin="round"/>
<path d="M1.66669 12.5V14.1667C1.66669 16.6667 3.33335 18.3333 5.83335 18.3333H7.50002" stroke="#7A5AF8" stroke-width="1.5" stroke-miterlimit="10" stroke-linecap="round" stroke-linejoin="round"/>
</svg>
