<svg width="10" height="10" viewBox="0 0 10 10" fill="none" xmlns="http://www.w3.org/2000/svg">
<path d="M7.50825 5.13751L6.99992 4.62918C6.87909 4.52501 6.80825 4.37084 6.80409 4.20001C6.79575 4.01251 6.87075 3.82501 7.00825 3.68751L7.50825 3.18751C7.94159 2.75418 8.10409 2.33751 7.96659 2.00834C7.83325 1.68334 7.42075 1.50418 6.81242 1.50418H2.45825V1.14584C2.45825 0.97501 2.31659 0.833344 2.14575 0.833344C1.97492 0.833344 1.83325 0.97501 1.83325 1.14584V8.85418C1.83325 9.02501 1.97492 9.16668 2.14575 9.16668C2.31659 9.16668 2.45825 9.02501 2.45825 8.85418V6.82084H6.81242C7.41242 6.82084 7.81659 6.63751 7.95409 6.30834C8.09159 5.97918 7.93325 5.56668 7.50825 5.13751Z" fill="white"/>
</svg>
