<svg width="10" height="11" viewBox="0 0 10 11" fill="none" xmlns="http://www.w3.org/2000/svg">
<path d="M7.50831 5.63766L6.99998 5.12933C6.87915 5.02516 6.80831 4.871 6.80415 4.70016C6.79581 4.51266 6.87081 4.32516 7.00831 4.18766L7.50831 3.68766C7.94165 3.25433 8.10415 2.83766 7.96665 2.5085C7.83331 2.1835 7.42081 2.00433 6.81248 2.00433H2.45831V1.646C2.45831 1.47516 2.31665 1.3335 2.14581 1.3335C1.97498 1.3335 1.83331 1.47516 1.83331 1.646V9.35433C1.83331 9.52516 1.97498 9.66683 2.14581 9.66683C2.31665 9.66683 2.45831 9.52516 2.45831 9.35433V7.321H6.81248C7.41248 7.321 7.81665 7.13766 7.95415 6.8085C8.09165 6.47933 7.93331 6.06683 7.50831 5.63766Z" fill="white"/>
</svg>
