<svg width="25" height="24" viewBox="0 0 25 24" fill="none" xmlns="http://www.w3.org/2000/svg">
<path d="M20.34 6.82018L14.58 2.79018C13.01 1.69018 10.6 1.75018 9.08998 2.92018L4.07998 6.83018C3.07998 7.61018 2.28998 9.21018 2.28998 10.4702V17.3702C2.28998 19.9202 4.35998 22.0002 6.90998 22.0002H17.69C20.24 22.0002 22.31 19.9302 22.31 17.3802V10.6002C22.31 9.25018 21.44 7.59018 20.34 6.82018ZM13.05 18.0002C13.05 18.4102 12.71 18.7502 12.3 18.7502C11.89 18.7502 11.55 18.4102 11.55 18.0002V15.0002C11.55 14.5902 11.89 14.2502 12.3 14.2502C12.71 14.2502 13.05 14.5902 13.05 15.0002V18.0002Z" fill="#FEFEFE"/>
</svg>
