<svg width="14" height="14" viewBox="0 0 14 14" fill="none" xmlns="http://www.w3.org/2000/svg">
<path d="M7.00001 0.333496C3.32668 0.333496 0.333344 3.32683 0.333344 7.00016C0.333344 10.6735 3.32668 13.6668 7.00001 13.6668C10.6733 13.6668 13.6667 10.6735 13.6667 7.00016C13.6667 3.32683 10.6733 0.333496 7.00001 0.333496ZM9.90001 9.38016C9.80668 9.54016 9.64001 9.62683 9.46668 9.62683C9.38001 9.62683 9.29334 9.60683 9.21334 9.5535L7.14668 8.32016C6.63334 8.0135 6.25334 7.34016 6.25334 6.74683V4.0135C6.25334 3.74016 6.48001 3.5135 6.75334 3.5135C7.02668 3.5135 7.25334 3.74016 7.25334 4.0135V6.74683C7.25334 6.98683 7.45334 7.34016 7.66001 7.46016L9.72668 8.6935C9.96668 8.8335 10.0467 9.14016 9.90001 9.38016Z" fill="#F79009"/>
</svg>
