<svg width="20" height="20" viewBox="0 0 20 20" fill="none" xmlns="http://www.w3.org/2000/svg">
<path d="M6.24998 3.33301H13.75C14.2666 3.33301 14.725 3.34967 15.1333 3.40801C17.325 3.64967 17.9166 4.68301 17.9166 7.49967V12.4997C17.9166 15.3163 17.325 16.3497 15.1333 16.5913C14.725 16.6497 14.2666 16.6663 13.75 16.6663H6.24998C5.73331 16.6663 5.27498 16.6497 4.86665 16.5913C2.67498 16.3497 2.08331 15.3163 2.08331 12.4997V7.49967C2.08331 4.68301 2.67498 3.64967 4.86665 3.40801C5.27498 3.34967 5.73331 3.33301 6.24998 3.33301Z" stroke="#9B8AFB" stroke-width="1.5" stroke-linecap="round" stroke-linejoin="round"/>
<path d="M11.25 8.33301H14.1667" stroke="#9B8AFB" stroke-width="1.5" stroke-linecap="round" stroke-linejoin="round"/>
<path d="M5.83331 12.917H5.84998H14.1666" stroke="#7A5AF8" stroke-width="1.5" stroke-linecap="round" stroke-linejoin="round"/>
<path d="M8.41215 8.33366H8.41964" stroke="#7A5AF8" stroke-width="2" stroke-linecap="round" stroke-linejoin="round"/>
<path d="M5.91215 8.33366H5.91964" stroke="#7A5AF8" stroke-width="2" stroke-linecap="round" stroke-linejoin="round"/>
</svg>
