<svg width="25" height="24" viewBox="0 0 25 24" fill="none" xmlns="http://www.w3.org/2000/svg">
<path d="M20.0699 4.89012L14.2099 2.28012C13.3499 1.90012 12.0499 1.90012 11.1899 2.28012L5.32988 4.89012C3.84988 5.55012 3.62988 6.45012 3.62988 6.93012C3.62988 7.41012 3.84988 8.31012 5.32988 8.97012L11.1899 11.5801C11.6199 11.7701 12.1599 11.8701 12.6999 11.8701C13.2399 11.8701 13.7799 11.7701 14.2099 11.5801L20.0699 8.97012C21.5499 8.31012 21.7699 7.41012 21.7699 6.93012C21.7699 6.45012 21.5599 5.55012 20.0699 4.89012Z" fill="white"/>
<path d="M12.7 17.04C12.32 17.04 11.94 16.96 11.59 16.81L4.85002 13.81C3.82002 13.35 3.02002 12.12 3.02002 10.99C3.02002 10.58 3.35002 10.25 3.76002 10.25C4.17002 10.25 4.50002 10.58 4.50002 10.99C4.50002 11.53 4.95002 12.23 5.45002 12.45L12.19 15.45C12.51 15.59 12.88 15.59 13.2 15.45L19.94 12.45C20.44 12.23 20.89 11.54 20.89 10.99C20.89 10.58 21.22 10.25 21.63 10.25C22.04 10.25 22.37 10.58 22.37 10.99C22.37 12.11 21.57 13.35 20.54 13.81L13.8 16.81C13.46 16.96 13.08 17.04 12.7 17.04Z" fill="white"/>
<path d="M12.7 22C12.32 22 11.94 21.92 11.59 21.77L4.85002 18.77C3.74002 18.28 3.02002 17.17 3.02002 15.95C3.02002 15.54 3.35002 15.21 3.76002 15.21C4.17002 15.21 4.50002 15.54 4.50002 15.95C4.50002 16.58 4.87002 17.15 5.45002 17.41L12.19 20.41C12.51 20.55 12.88 20.55 13.2 20.41L19.94 17.41C20.51 17.16 20.89 16.58 20.89 15.95C20.89 15.54 21.22 15.21 21.63 15.21C22.04 15.21 22.37 15.54 22.37 15.95C22.37 17.17 21.65 18.27 20.54 18.77L13.8 21.77C13.46 21.92 13.08 22 12.7 22Z" fill="white"/>
</svg>
