<svg width="25" height="24" viewBox="0 0 25 24" fill="none" xmlns="http://www.w3.org/2000/svg">
<path d="M12.4899 11.88C11.9499 11.88 11.3999 11.78 10.9699 11.59L5.06985 8.97C3.56985 8.3 3.34985 7.4 3.34985 6.91C3.34985 6.42 3.56985 5.52 5.06985 4.85L10.9699 2.23C11.8399 1.84 13.1499 1.84 14.0199 2.23L19.9299 4.85C21.4199 5.51 21.6499 6.42 21.6499 6.91C21.6499 7.4 21.4299 8.3 19.9299 8.97L14.0199 11.59C13.5799 11.79 13.0399 11.88 12.4899 11.88ZM12.4899 3.44C12.1499 3.44 11.8199 3.49 11.5799 3.6L5.67985 6.22C5.06985 6.5 4.84985 6.78 4.84985 6.91C4.84985 7.04 5.06985 7.33 5.66985 7.6L11.5699 10.22C12.0499 10.43 12.9199 10.43 13.3999 10.22L19.3099 7.6C19.9199 7.33 20.1399 7.04 20.1399 6.91C20.1399 6.78 19.9199 6.49 19.3099 6.22L13.4099 3.6C13.1699 3.5 12.8299 3.44 12.4899 3.44Z" fill="white"/>
<path d="M12.7 17.09C12.32 17.09 11.94 17.01 11.58 16.85L4.78995 13.83C3.75995 13.38 2.94995 12.13 2.94995 11C2.94995 10.59 3.28995 10.25 3.69995 10.25C4.10995 10.25 4.44995 10.59 4.44995 11C4.44995 11.55 4.89995 12.24 5.39995 12.47L12.19 15.49C12.51 15.63 12.88 15.63 13.21 15.49L20 12.47C20.5 12.25 20.95 11.55 20.95 11C20.95 10.59 21.29 10.25 21.7 10.25C22.11 10.25 22.45 10.59 22.45 11C22.45 12.13 21.64 13.38 20.61 13.84L13.82 16.86C13.46 17.01 13.08 17.09 12.7 17.09Z" fill="white"/>
<path d="M12.7 22.0902C12.32 22.0902 11.94 22.0102 11.58 21.8502L4.78995 18.8302C3.66995 18.3302 2.94995 17.2202 2.94995 15.9902C2.94995 15.5802 3.28995 15.2402 3.69995 15.2402C4.10995 15.2402 4.44995 15.5902 4.44995 16.0002C4.44995 16.6302 4.81995 17.2102 5.39995 17.4702L12.19 20.4902C12.51 20.6302 12.88 20.6302 13.21 20.4902L20 17.4702C20.58 17.2102 20.95 16.6402 20.95 16.0002C20.95 15.5902 21.29 15.2502 21.7 15.2502C22.11 15.2502 22.45 15.5902 22.45 16.0002C22.45 17.2302 21.73 18.3402 20.61 18.8402L13.82 21.8602C13.46 22.0102 13.08 22.0902 12.7 22.0902Z" fill="white"/>
</svg>
