<svg width="32" height="32" viewBox="0 0 32 32" fill="none" xmlns="http://www.w3.org/2000/svg">
<circle cx="16" cy="16" r="15.5" fill="#F95555" stroke="#FEFEFE"/>
<mask id="path-2-inside-1_102_7623" fill="white">
<path d="M8.8 24C8.35817 24 7.99586 23.6409 8.03997 23.2013C8.11789 22.4247 8.30918 21.6623 8.60896 20.9385C9.011 19.9679 9.60028 19.086 10.3431 18.3431C11.086 17.6003 11.9679 17.011 12.9385 16.609C13.9091 16.2069 14.9494 16 16 16C17.0506 16 18.0909 16.2069 19.0615 16.609C20.0321 17.011 20.914 17.6003 21.6569 18.3431C22.3997 19.086 22.989 19.9679 23.391 20.9385C23.6908 21.6623 23.8821 22.4247 23.96 23.2013C24.0041 23.6409 23.6418 24 23.2 24C22.7582 24 22.4052 23.6405 22.3501 23.2021C22.2789 22.6358 22.1322 22.0803 21.9128 21.5508C21.5912 20.7743 21.1198 20.0688 20.5255 19.4745C19.9312 18.8802 19.2257 18.4088 18.4492 18.0872C17.6727 17.7655 16.8405 17.6 16 17.6C15.1595 17.6 14.3273 17.7655 13.5508 18.0872C12.7743 18.4088 12.0688 18.8802 11.4745 19.4745C10.8802 20.0688 10.4088 20.7743 10.0872 21.5508C9.86784 22.0803 9.72109 22.6358 9.64993 23.2021C9.59485 23.6405 9.24183 24 8.8 24Z"/>
</mask>
<path d="M8.8 24C8.35817 24 7.99586 23.6409 8.03997 23.2013C8.11789 22.4247 8.30918 21.6623 8.60896 20.9385C9.011 19.9679 9.60028 19.086 10.3431 18.3431C11.086 17.6003 11.9679 17.011 12.9385 16.609C13.9091 16.2069 14.9494 16 16 16C17.0506 16 18.0909 16.2069 19.0615 16.609C20.0321 17.011 20.914 17.6003 21.6569 18.3431C22.3997 19.086 22.989 19.9679 23.391 20.9385C23.6908 21.6623 23.8821 22.4247 23.96 23.2013C24.0041 23.6409 23.6418 24 23.2 24C22.7582 24 22.4052 23.6405 22.3501 23.2021C22.2789 22.6358 22.1322 22.0803 21.9128 21.5508C21.5912 20.7743 21.1198 20.0688 20.5255 19.4745C19.9312 18.8802 19.2257 18.4088 18.4492 18.0872C17.6727 17.7655 16.8405 17.6 16 17.6C15.1595 17.6 14.3273 17.7655 13.5508 18.0872C12.7743 18.4088 12.0688 18.8802 11.4745 19.4745C10.8802 20.0688 10.4088 20.7743 10.0872 21.5508C9.86784 22.0803 9.72109 22.6358 9.64993 23.2021C9.59485 23.6405 9.24183 24 8.8 24Z" fill="#520204" stroke="#520204" mask="url(#path-2-inside-1_102_7623)"/>
<path d="M8.47522 13.8716L6.77816 12.1745" stroke="#520204" stroke-width="2" stroke-linecap="round"/>
<path d="M24.4584 14.2734L26.0213 12.4521" stroke="#520204" stroke-width="2" stroke-linecap="round"/>
</svg>
