<svg width="12" height="10" viewBox="0 0 12 10" fill="none" xmlns="http://www.w3.org/2000/svg">
<path d="M10.575 2.085C10.37 1.975 9.94 1.86 9.355 2.27L8.62 2.79C8.565 1.235 7.89 0.625 6.25 0.625H3.25C1.54 0.625 0.875 1.29 0.875 3V7C0.875 8.15 1.5 9.375 3.25 9.375H6.25C7.89 9.375 8.565 8.765 8.62 7.21L9.355 7.73C9.665 7.95 9.935 8.02 10.15 8.02C10.335 8.02 10.48 7.965 10.575 7.915C10.78 7.81 11.125 7.525 11.125 6.81V3.19C11.125 2.475 10.78 2.19 10.575 2.085ZM5.5 4.69C4.985 4.69 4.56 4.27 4.56 3.75C4.56 3.23 4.985 2.81 5.5 2.81C6.015 2.81 6.44 3.23 6.44 3.75C6.44 4.27 6.015 4.69 5.5 4.69Z" fill="#FAFAFF"/>
</svg>
