<svg width="20" height="20" viewBox="0 0 20 20" fill="none" xmlns="http://www.w3.org/2000/svg">
<path d="M14.1667 2.0249H5.83332C3.33332 2.0249 1.66666 3.69157 1.66666 6.19157V11.1916C1.66666 13.6916 3.33332 15.3582 5.83332 15.3582H9.16666L12.875 17.8249C13.425 18.1916 14.1667 17.7999 14.1667 17.1332V15.3582C16.6667 15.3582 18.3333 13.6916 18.3333 11.1916V6.19157C18.3333 3.69157 16.6667 2.0249 14.1667 2.0249ZM12.9167 9.3749H7.08332C6.74166 9.3749 6.45832 9.09157 6.45832 8.7499C6.45832 8.40824 6.74166 8.1249 7.08332 8.1249H12.9167C13.2583 8.1249 13.5417 8.40824 13.5417 8.7499C13.5417 9.09157 13.2583 9.3749 12.9167 9.3749Z" fill="#6E62FF"/>
</svg>
