<svg width="20" height="20" viewBox="0 0 20 20" fill="none" xmlns="http://www.w3.org/2000/svg">
<path d="M10 18.275C5.8 18.275 2.375 14.8583 2.375 10.65V9.08333C2.375 8.75833 2.64167 8.5 2.95833 8.5C3.275 8.5 3.54167 8.76667 3.54167 9.08333V10.65C3.54167 14.2083 6.43333 17.1 9.99167 17.1C13.55 17.1 16.4417 14.2083 16.4417 10.65V9.08333C16.4417 8.75833 16.7083 8.5 17.025 8.5C17.3417 8.5 17.6083 8.76667 17.6083 9.08333V10.65C17.625 14.8583 14.2 18.275 10 18.275Z" fill="#FEFEFE"/>
<path d="M10 1.66699C7.20002 1.66699 4.91669 3.95033 4.91669 6.75033V10.6587C4.91669 13.4587 7.20002 15.742 10 15.742C12.8 15.742 15.0834 13.4587 15.0834 10.6587V6.75033C15.0834 3.95033 12.8 1.66699 10 1.66699ZM11.8167 8.82533C11.7584 9.05033 11.55 9.20033 11.325 9.20033C11.2834 9.20033 11.2334 9.19199 11.1917 9.18366C10.3417 8.95033 9.44169 8.95033 8.59169 9.18366C8.31669 9.25866 8.04169 9.10033 7.96669 8.82533C7.89169 8.55866 8.05002 8.27533 8.32502 8.20033C9.35002 7.91699 10.4334 7.91699 11.4584 8.20033C11.7334 8.27533 11.8917 8.55033 11.8167 8.82533ZM12.525 6.51699C12.45 6.72533 12.2584 6.85033 12.05 6.85033C11.9917 6.85033 11.9334 6.84199 11.875 6.81699C10.6 6.35033 9.20002 6.35033 7.92502 6.81699C7.65835 6.91699 7.36669 6.78366 7.26669 6.51699C7.17502 6.25866 7.30835 5.96699 7.57502 5.86699C9.07502 5.32533 10.725 5.32533 12.2167 5.86699C12.4834 5.96699 12.6167 6.25866 12.525 6.51699Z" fill="#FEFEFE"/>
</svg>
