<svg width="28" height="30" viewBox="0 0 28 30" fill="none" xmlns="http://www.w3.org/2000/svg">
<g filter="url(#filter0_d_85_7046)">
<path d="M14 2C8.48 2 4 6.48 4 12C4 17.52 8.48 22 14 22C19.52 22 24 17.52 24 12C24 6.48 19.52 2 14 2ZM18.15 12.83L16.42 13.41C15.94 13.57 15.57 13.94 15.41 14.42L14.83 16.15C14.34 17.64 12.24 17.61 11.78 16.12L9.83 9.84C9.45 8.59 10.6 7.44 11.83 7.82L18.12 9.77C19.61 10.24 19.63 12.34 18.15 12.83Z" fill="#7A5AF8"/>
</g>
<defs>
<filter id="filter0_d_85_7046" x="-2" y="0" width="32" height="32" filterUnits="userSpaceOnUse" color-interpolation-filters="sRGB">
<feFlood flood-opacity="0" result="BackgroundImageFix"/>
<feColorMatrix in="SourceAlpha" type="matrix" values="0 0 0 0 0 0 0 0 0 0 0 0 0 0 0 0 0 0 127 0" result="hardAlpha"/>
<feOffset dy="4"/>
<feGaussianBlur stdDeviation="2"/>
<feComposite in2="hardAlpha" operator="out"/>
<feColorMatrix type="matrix" values="0 0 0 0 0 0 0 0 0 0 0 0 0 0 0 0 0 0 0.25 0"/>
<feBlend mode="normal" in2="BackgroundImageFix" result="effect1_dropShadow_85_7046"/>
<feBlend mode="normal" in="SourceGraphic" in2="effect1_dropShadow_85_7046" result="shape"/>
</filter>
</defs>
</svg>
