<svg width="126" height="86" viewBox="0 0 126 86" fill="none" xmlns="http://www.w3.org/2000/svg">
<rect width="126" height="86" rx="4" fill="#F4F3FF"/>
<rect x="2" y="2" width="39.3333" height="40" rx="4" fill="#EBE9FE"/>
<rect x="43.3335" y="2" width="39.3333" height="40" rx="4" fill="#EBE9FE"/>
<rect x="84.6665" y="2" width="39.3333" height="40" rx="4" fill="#EBE9FE"/>
<path d="M104 22.0001C106.301 22.0001 108.167 20.1346 108.167 17.8334C108.167 15.5322 106.301 13.6667 104 13.6667C101.699 13.6667 99.8335 15.5322 99.8335 17.8334C99.8335 20.1346 101.699 22.0001 104 22.0001Z" fill="#D9D6FE"/>
<path d="M104 24.0833C99.8248 24.0833 96.4248 26.8833 96.4248 30.3333C96.4248 30.5666 96.6081 30.7499 96.8415 30.7499H111.158C111.391 30.7499 111.575 30.5666 111.575 30.3333C111.575 26.8833 108.175 24.0833 104 24.0833Z" fill="#D9D6FE"/>
<path d="M63.0002 22.0001C65.3013 22.0001 67.1668 20.1346 67.1668 17.8334C67.1668 15.5322 65.3013 13.6667 63.0002 13.6667C60.699 13.6667 58.8335 15.5322 58.8335 17.8334C58.8335 20.1346 60.699 22.0001 63.0002 22.0001Z" fill="#D9D6FE"/>
<path d="M62.9998 24.0833C58.8248 24.0833 55.4248 26.8833 55.4248 30.3333C55.4248 30.5666 55.6081 30.7499 55.8415 30.7499H70.1581C70.3915 30.7499 70.5748 30.5666 70.5748 30.3333C70.5748 26.8833 67.1748 24.0833 62.9998 24.0833Z" fill="#D9D6FE"/>
<path d="M22.0002 22.0001C24.3013 22.0001 26.1668 20.1346 26.1668 17.8334C26.1668 15.5322 24.3013 13.6667 22.0002 13.6667C19.699 13.6667 17.8335 15.5322 17.8335 17.8334C17.8335 20.1346 19.699 22.0001 22.0002 22.0001Z" fill="#D9D6FE"/>
<path d="M21.9998 24.0833C17.8248 24.0833 14.4248 26.8833 14.4248 30.3333C14.4248 30.5666 14.6081 30.7499 14.8415 30.7499H29.1581C29.3915 30.7499 29.5748 30.5666 29.5748 30.3333C29.5748 26.8833 26.1748 24.0833 21.9998 24.0833Z" fill="#D9D6FE"/>
<rect x="2" y="44" width="39.3333" height="40" rx="4" fill="#EBE9FE"/>
<rect x="43.3335" y="44" width="39.3333" height="40" rx="4" fill="#EBE9FE"/>
<rect x="84.6665" y="44" width="39.3333" height="40" rx="4" fill="#EBE9FE"/>
<path d="M63.0002 64.0001C65.3013 64.0001 67.1668 62.1346 67.1668 59.8334C67.1668 57.5322 65.3013 55.6667 63.0002 55.6667C60.699 55.6667 58.8335 57.5322 58.8335 59.8334C58.8335 62.1346 60.699 64.0001 63.0002 64.0001Z" fill="#D9D6FE"/>
<path d="M62.9998 66.0833C58.8248 66.0833 55.4248 68.8833 55.4248 72.3333C55.4248 72.5666 55.6081 72.7499 55.8415 72.7499H70.1581C70.3915 72.7499 70.5748 72.5666 70.5748 72.3333C70.5748 68.8833 67.1748 66.0833 62.9998 66.0833Z" fill="#D9D6FE"/>
<path d="M104 64.0001C106.301 64.0001 108.167 62.1346 108.167 59.8334C108.167 57.5322 106.301 55.6667 104 55.6667C101.699 55.6667 99.8335 57.5322 99.8335 59.8334C99.8335 62.1346 101.699 64.0001 104 64.0001Z" fill="#D9D6FE"/>
<path d="M104 66.0833C99.8248 66.0833 96.4248 68.8833 96.4248 72.3333C96.4248 72.5666 96.6081 72.7499 96.8415 72.7499H111.158C111.391 72.7499 111.575 72.5666 111.575 72.3333C111.575 68.8833 108.175 66.0833 104 66.0833Z" fill="#D9D6FE"/>
<path d="M22.0002 64.0001C24.3013 64.0001 26.1668 62.1346 26.1668 59.8334C26.1668 57.5322 24.3013 55.6667 22.0002 55.6667C19.699 55.6667 17.8335 57.5322 17.8335 59.8334C17.8335 62.1346 19.699 64.0001 22.0002 64.0001Z" fill="#D9D6FE"/>
<path d="M21.9998 66.0833C17.8248 66.0833 14.4248 68.8833 14.4248 72.3333C14.4248 72.5666 14.6081 72.7499 14.8415 72.7499H29.1581C29.3915 72.7499 29.5748 72.5666 29.5748 72.3333C29.5748 68.8833 26.1748 66.0833 21.9998 66.0833Z" fill="#D9D6FE"/>
</svg>
