<svg width="20" height="20" viewBox="0 0 20 20" fill="none" xmlns="http://www.w3.org/2000/svg">
<path d="M16.1167 12.0748L15.2833 10.6915C15.1083 10.3832 14.95 9.79984 14.95 9.45817V7.34984C14.95 5.3915 13.8 3.69984 12.1417 2.90817C11.7083 2.1415 10.9083 1.6665 9.99166 1.6665C9.08333 1.6665 8.26666 2.15817 7.83333 2.93317C6.20833 3.7415 5.08333 5.4165 5.08333 7.34984V9.45817C5.08333 9.79984 4.92499 10.3832 4.74999 10.6832L3.90833 12.0748C3.57499 12.6332 3.49999 13.2498 3.70833 13.8165C3.90833 14.3748 4.38333 14.8082 4.99999 15.0165C6.61666 15.5665 8.31666 15.8332 10.0167 15.8332C11.7167 15.8332 13.4167 15.5665 15.0333 15.0248C15.6167 14.8332 16.0667 14.3915 16.2833 13.8165C16.5 13.2415 16.4417 12.6082 16.1167 12.0748Z" fill="#6E62FF"/>
<path d="M12.3583 16.6748C12.0083 17.6415 11.0833 18.3332 9.99999 18.3332C9.34166 18.3332 8.69166 18.0665 8.23333 17.5915C7.96666 17.3415 7.76666 17.0082 7.64999 16.6665C7.75833 16.6832 7.86666 16.6915 7.98333 16.7082C8.17499 16.7332 8.37499 16.7582 8.57499 16.7748C9.04999 16.8165 9.53333 16.8415 10.0167 16.8415C10.4917 16.8415 10.9667 16.8165 11.4333 16.7748C11.6083 16.7582 11.7833 16.7498 11.95 16.7248C12.0833 16.7082 12.2167 16.6915 12.3583 16.6748Z" fill="#6E62FF"/>
</svg>
