<svg width="16" height="16" viewBox="0 0 16 16" fill="none" xmlns="http://www.w3.org/2000/svg">
<path d="M8.00004 1.33333C4.32671 1.33333 1.33337 4.32667 1.33337 8C1.33337 11.6733 4.32671 14.6667 8.00004 14.6667C11.6734 14.6667 14.6667 11.6733 14.6667 8C14.6667 4.32667 11.6734 1.33333 8.00004 1.33333ZM11.1867 6.46667L7.40671 10.2467C7.31337 10.34 7.18671 10.3933 7.05337 10.3933C6.92004 10.3933 6.79337 10.34 6.70004 10.2467L4.81337 8.36C4.62004 8.16667 4.62004 7.84667 4.81337 7.65333C5.00671 7.46 5.32671 7.46 5.52004 7.65333L7.05337 9.18667L10.48 5.76C10.6734 5.56667 10.9934 5.56667 11.1867 5.76C11.38 5.95333 11.38 6.26667 11.1867 6.46667Z" fill="#F95555"/>
</svg>
