<svg width="20" height="20" viewBox="0 0 20 20" fill="none" xmlns="http://www.w3.org/2000/svg">
<path d="M5.92498 4.96673L13.4416 2.4584C16.8166 1.3334 18.65 3.17507 17.5333 6.55007L15.025 14.0667C13.3416 19.1251 10.575 19.1251 8.89165 14.0667L8.14998 11.8334L5.91665 11.0917C0.866647 9.41674 0.866647 6.6584 5.92498 4.96673Z" fill="#FEFEFE"/>
<path d="M10.1 9.69212L13.275 6.50879L10.1 9.69212Z" fill="#FEFEFE"/>
<path d="M10.1 10.317C9.94169 10.317 9.78336 10.2587 9.65836 10.1337C9.4167 9.89199 9.4167 9.49199 9.65836 9.25033L12.825 6.06699C13.0667 5.82533 13.4667 5.82533 13.7084 6.06699C13.95 6.30866 13.95 6.70866 13.7084 6.95033L10.5417 10.1337C10.4167 10.2503 10.2584 10.317 10.1 10.317Z" fill="#7A5AF8"/>
</svg>
