<svg width="25" height="24" viewBox="0 0 25 24" fill="none" xmlns="http://www.w3.org/2000/svg">
<path d="M8.5 5.75C8.09 5.75 7.75 5.41 7.75 5V2C7.75 1.59 8.09 1.25 8.5 1.25C8.91 1.25 9.25 1.59 9.25 2V5C9.25 5.41 8.91 5.75 8.5 5.75Z" fill="white"/>
<path d="M16.5 5.75C16.09 5.75 15.75 5.41 15.75 5V2C15.75 1.59 16.09 1.25 16.5 1.25C16.91 1.25 17.25 1.59 17.25 2V5C17.25 5.41 16.91 5.75 16.5 5.75Z" fill="white"/>
<path d="M16.5 22.75H8.5C4.85 22.75 2.75 20.65 2.75 17V8.5C2.75 4.85 4.85 2.75 8.5 2.75H16.5C20.15 2.75 22.25 4.85 22.25 8.5V17C22.25 20.65 20.15 22.75 16.5 22.75ZM8.5 4.25C5.64 4.25 4.25 5.64 4.25 8.5V17C4.25 19.86 5.64 21.25 8.5 21.25H16.5C19.36 21.25 20.75 19.86 20.75 17V8.5C20.75 5.64 19.36 4.25 16.5 4.25H8.5Z" fill="white"/>
<path d="M16.5 11.75H8.5C8.09 11.75 7.75 11.41 7.75 11C7.75 10.59 8.09 10.25 8.5 10.25H16.5C16.91 10.25 17.25 10.59 17.25 11C17.25 11.41 16.91 11.75 16.5 11.75Z" fill="white"/>
<path d="M12.5 16.75H8.5C8.09 16.75 7.75 16.41 7.75 16C7.75 15.59 8.09 15.25 8.5 15.25H12.5C12.91 15.25 13.25 15.59 13.25 16C13.25 16.41 12.91 16.75 12.5 16.75Z" fill="white"/>
</svg>
