<svg width="25" height="24" viewBox="0 0 25 24" fill="none" xmlns="http://www.w3.org/2000/svg">
<path d="M12.1001 2C6.5801 2 2.1001 6.48 2.1001 12C2.1001 17.52 6.5801 22 12.1001 22C17.6201 22 22.1001 17.52 22.1001 12C22.1001 6.48 17.6201 2 12.1001 2ZM8.7501 14.77C8.6401 15.07 8.3501 15.26 8.0501 15.26C7.9601 15.26 7.8801 15.25 7.7901 15.21C6.9801 14.91 6.3001 14.32 5.8701 13.55C4.8701 11.75 5.4901 9.4 7.2401 8.31L9.5801 6.86C10.4401 6.33 11.4501 6.17 12.4101 6.42C13.3701 6.67 14.1801 7.3 14.6701 8.18C15.6701 9.98 15.0501 12.33 13.3001 13.42L13.0401 13.61C12.7001 13.85 12.2301 13.77 11.9901 13.44C11.7501 13.1 11.8301 12.63 12.1601 12.39L12.4701 12.17C13.5901 11.47 13.9701 10.02 13.3601 8.91C13.0701 8.39 12.6001 8.02 12.0401 7.87C11.4801 7.72 10.8901 7.81 10.3801 8.13L8.0201 9.59C6.9401 10.26 6.5601 11.71 7.1701 12.83C7.4201 13.28 7.8201 13.63 8.3001 13.81C8.6901 13.95 8.8901 14.38 8.7501 14.77ZM17.0201 15.65L14.6801 17.1C14.0901 17.47 13.4301 17.65 12.7601 17.65C12.4601 17.65 12.1501 17.61 11.8501 17.53C10.8901 17.28 10.0801 16.65 9.6001 15.77C8.6001 13.97 9.2201 11.62 10.9701 10.53L11.2301 10.34C11.5701 10.1 12.0401 10.18 12.2801 10.51C12.5201 10.85 12.4401 11.32 12.1101 11.56L11.8001 11.78C10.6801 12.48 10.3001 13.93 10.9101 15.04C11.2001 15.56 11.6701 15.93 12.2301 16.08C12.7901 16.23 13.3801 16.14 13.8901 15.82L16.2301 14.37C17.3101 13.7 17.6901 12.25 17.0801 11.13C16.8301 10.68 16.4301 10.33 15.9501 10.15C15.5601 10.01 15.3601 9.58 15.5101 9.19C15.6501 8.8 16.0901 8.6 16.4701 8.75C17.2801 9.05 17.9601 9.64 18.3901 10.41C19.3801 12.21 18.7701 14.56 17.0201 15.65Z" fill="white"/>
</svg>
