<svg width="25" height="24" viewBox="0 0 25 24" fill="none" xmlns="http://www.w3.org/2000/svg">
<path d="M8.04007 14.5099C7.42007 14.2799 6.87006 13.8299 6.52006 13.1899C5.72006 11.7299 6.21006 9.82989 7.63006 8.94989L9.97006 7.49988C11.3801 6.61988 13.2001 7.09987 14.0001 8.54987C14.8001 10.0099 14.3101 11.9099 12.8901 12.7899L12.5801 13.0099" stroke="white" stroke-linecap="round" stroke-linejoin="round"/>
<path d="M16.2101 9.4502C16.8301 9.6802 17.3801 10.1302 17.7301 10.7702C18.5301 12.2302 18.0401 14.1302 16.6201 15.0102L14.28 16.4602C12.87 17.3402 11.05 16.8602 10.25 15.4102C9.45004 13.9502 9.94005 12.0502 11.36 11.1702L11.6701 10.9502" stroke="white" stroke-linecap="round" stroke-linejoin="round"/>
<path d="M12.1001 22C17.6229 22 22.1001 17.5228 22.1001 12C22.1001 6.47715 17.6229 2 12.1001 2C6.57725 2 2.1001 6.47715 2.1001 12C2.1001 17.5228 6.57725 22 12.1001 22Z" stroke="white" stroke-linecap="round" stroke-linejoin="round"/>
</svg>
