<svg width="14" height="14" viewBox="0 0 14 14" fill="none" xmlns="http://www.w3.org/2000/svg">
<path d="M7 0.333496C3.32 0.333496 0.333328 3.32016 0.333328 7.00016C0.333328 10.6802 3.32 13.6668 7 13.6668C10.68 13.6668 13.6667 10.6802 13.6667 7.00016C13.6667 3.32016 10.68 0.333496 7 0.333496ZM4.68666 7.98016C4.87999 8.1735 4.87999 8.4935 4.68666 8.68683C4.58666 8.78683 4.46 8.8335 4.33333 8.8335C4.20666 8.8335 4.07999 8.78683 3.97999 8.68683L2.64666 7.3535C2.45333 7.16016 2.45333 6.84016 2.64666 6.64683L3.97999 5.3135C4.17333 5.12016 4.49333 5.12016 4.68666 5.3135C4.87999 5.50683 4.87999 5.82683 4.68666 6.02016L3.70666 7.00016L4.68666 7.98016ZM8.12666 5.64016L6.79333 8.7535C6.71333 8.94016 6.52666 9.0535 6.33333 9.0535C6.26666 9.0535 6.2 9.04016 6.14 9.0135C5.88666 8.90683 5.76666 8.6135 5.87999 8.3535L7.21333 5.24016C7.31999 4.98683 7.61333 4.86683 7.86666 4.98016C8.12 5.0935 8.23333 5.38683 8.12666 5.64016ZM11.3533 7.3535L10.02 8.68683C9.92 8.78683 9.79333 8.8335 9.66666 8.8335C9.54 8.8335 9.41333 8.78683 9.31333 8.68683C9.12 8.4935 9.12 8.1735 9.31333 7.98016L10.2933 7.00016L9.31333 6.02016C9.12 5.82683 9.12 5.50683 9.31333 5.3135C9.50666 5.12016 9.82666 5.12016 10.02 5.3135L11.3533 6.64683C11.5467 6.84016 11.5467 7.16016 11.3533 7.3535Z" fill="#7A5AF8"/>
</svg>
