<svg width="20" height="20" viewBox="0 0 20 20" fill="none" xmlns="http://www.w3.org/2000/svg">
<path d="M16.2584 4.875L11.3083 2.01667C10.5 1.55 9.50002 1.55 8.68335 2.01667L3.74168 4.875C2.93335 5.34167 2.43335 6.20833 2.43335 7.15V12.85C2.43335 13.7833 2.93335 14.65 3.74168 15.125L8.69168 17.9833C9.50002 18.45 10.5 18.45 11.3167 17.9833L16.2667 15.125C17.075 14.6583 17.575 13.7917 17.575 12.85V7.15C17.5667 6.20833 17.0667 5.35 16.2584 4.875ZM10 6.11667C11.075 6.11667 11.9417 6.98333 11.9417 8.05833C11.9417 9.13333 11.075 10 10 10C8.92502 10 8.05835 9.13333 8.05835 8.05833C8.05835 6.99167 8.92502 6.11667 10 6.11667ZM12.2333 13.8833H7.76668C7.09168 13.8833 6.70002 13.1333 7.07502 12.575C7.64168 11.7333 8.74168 11.1667 10 11.1667C11.2584 11.1667 12.3583 11.7333 12.925 12.575C13.3 13.125 12.9 13.8833 12.2333 13.8833Z" fill="#7A5AF8"/>
</svg>
